#!OML:ASF H:\ManfredETheater\Project 1\Capture day 1\Session 1\subject.ASF
:FULLY-SPECIFIED
:DEGREES
93
root 7.08732 25.7943 4.05947 -181.198 -9.31642 -187.272
lowerback 28.1721 3.12025 1.97428
upperback 6.03896 3.2371 -0.938266
thorax -8.59219 0.952634 -3.21927
lowerneck -10.0767 -2.03506 -3.50538
upperneck 11.8824 -1.84906 -4.70458
head 5.23275 -1.48964 -1.044
rclavicle 3.93594e-014 -1.51076e-014
rhumerus 2.46229 17.4129 -57.7644
rradius 42.7575
rwrist 10.5264
rhand -22.8501 2.20312
rfingers 7.12502
rthumb 3.58783 -27.7464
lclavicle 3.93594e-014 -1.51076e-014
lhumerus -29.9789 -0.78302 66.5443
lradius 60.7056
lwrist -3.48784
lhand -28.0054 -13.8037
lfingers 7.12502
lthumb -1.39118 16.1715
rfemur -42.3264 -19.8473 7.91571
rtibia 111.631
rfoot -9.49566 -12.2676
rtoes 5.35371
lfemur -68.7274 -3.96311 -5.49815
ltibia 69.4184
lfoot -4.46792 -7.01066
ltoes -3.49775
94
root 6.94067 25.8685 3.69369 -181.106 -9.164 -187.203
lowerback 28.3237 3.1863 2.03412
upperback 6.05701 3.33327 -0.909369
thorax -8.6381 0.991256 -3.26008
lowerneck -10.0004 -2.11371 -3.61418
upperneck 11.8298 -1.957 -4.61325
head 5.20484 -1.53817 -1.0042
rclavicle -1.35174e-014 4.05521e-014
rhumerus 0.253982 16.1842 -58.5429
rradius 40.0435
rwrist 11.1896
rhand -22.7253 1.87426
rfingers 7.12502
rthumb 3.70842 -28.0732
lclavicle -1.35174e-014 4.05521e-014
lhumerus -30.7733 0.0816382 67.7907
lradius 59.1138
lwrist -3.82929
lhand -27.9186 -13.9799
lfingers 7.12502
lthumb -1.30727 15.9958
rfemur -45.039 -21.1873 8.82544
rtibia 113.084
rfoot -10.9831 -12.2679
rtoes 4.40276
lfemur -67.7956 -3.97481 -5.77377
ltibia 68.1239
lfoot -4.33682 -7.48399
ltoes -3.83334
95
root 6.79711 25.9302 3.32524 -181.01 -9.0725 -187.133
lowerback 28.4913 3.23776 2.08135
upperback 6.05837 3.41009 -0.884094
thorax -8.71255 1.02118 -3.29286
lowerneck -9.90601 -2.1798 -3.71326
upperneck 11.7531 -2.04983 -4.53249
head 5.16648 -1.57872 -0.96754
rclavicle 1.15295e-014 -1.90833e-014
rhumerus -2.05182 14.7057 -59.1669
rradius 37.6094
rwrist 11.7992
rhand -22.6317 1.51509
rfingers 7.12502
rthumb 3.79877 -28.4308
lclavicle 1.15295e-014 -1.90833e-014
lhumerus -31.5988 1.07821 68.6926
lradius 57.5716
lwrist -4.31862
lhand -27.8344 -14.167
lfingers 7.12502
lthumb -1.22594 15.8093
rfemur -47.7575 -22.4181 9.97806
rtibia 114.163
rfoot -12.3173 -12.6219
rtoes 3.49397
lfemur -66.8569 -4.00185 -6.04714
ltibia 66.8058
lfoot -4.15232 -7.94191
ltoes -4.07869
96
root 6.65653 25.979 2.95413 -180.903 -9.03165 -187.066
lowerback 28.6607 3.27869 2.11181
upperback 6.04626 3.47131 -0.862799
thorax -8.805 1.0446 -3.31608
lowerneck -9.808 -2.23685 -3.80057
upperneck 11.6593 -2.13099 -4.46711
head 5.12212 -1.61359 -0.936404
rclavicle 2.90226e-014 -3.18055e-015
rhumerus -4.44327 13.0223 -59.5939
rradius 35.4794
rwrist 12.3568
rhand -22.563 1.14537
rfingers 7.12502
rthumb 3.8651 -28.7993
lclavicle 2.90226e-014 -3.18055e-015
lhumerus -32.4736 2.17177 69.2377
lradius 56.1112
lwrist -4.91812
lhand -27.7753 -14.3534
lfingers 7.12502
lthumb -1.16885 15.6231
rfemur -50.4881 -23.4896 11.3482
rtibia 114.875
rfoot -13.5082 -13.2693
rtoes 2.54722
lfemur -65.9239 -4.04147 -6.31335
ltibia 65.4721
lfoot -3.92302 -8.35428
ltoes -4.23369
97
root 6.51866 26.0144 2.58029 -180.779 -9.04029 -186.995
lowerback 28.8206 3.30689 2.13515
upperback 6.02578 3.5166 -0.842515
thorax -8.90376 1.06141 -3.331
lowerneck -9.71847 -2.28609 -3.88568
upperneck 11.549 -2.20032 -4.41358
head 5.07413 -1.64297 -0.908339
rclavicle -2.26615e-014 1.59028e-015
rhumerus -6.90765 11.2077 -59.7861
rradius 33.6617
rwrist 12.8575
rhand -22.5275 0.791209
rfingers 7.12502
rthumb 3.89936 -29.1529
lclavicle -2.26615e-014 1.59028e-015
lhumerus -33.3918 3.32871 69.4276
lradius 54.7449
lwrist -5.54678
lhand -27.7406 -14.4704
lfingers 7.12502
lthumb -1.13542 15.5063
rfemur -53.2172 -24.3641 12.9043
rtibia 115.224
rfoot -14.5731 -14.1174
rtoes 1.48257
lfemur -65.0117 -4.09434 -6.56202
ltibia 64.1338
lfoot -3.66261 -8.69887
ltoes -4.31797
98
root 6.38323 26.0362 2.20337 -180.637 -9.10426 -186.919
lowerback 28.9612 3.3183 2.15542
upperback 6.00525 3.5409 -0.819147
thorax -8.99488 1.06921 -3.33263
lowerneck -9.66311 -2.33004 -3.97708
upperneck 11.4371 -2.25812 -4.37068
head 5.03157 -1.66798 -0.882221
rclavicle -1.03368e-014 -4.29375e-014
rhumerus -9.42758 9.34882 -59.7233
rradius 32.1552
rwrist 13.2894
rhand -22.5169 0.450778
rfingers 7.12502
rthumb 3.90967 -29.4931
lclavicle -1.03368e-014 -4.29375e-014
lhumerus -34.3452 4.51824 69.2712
lradius 53.4676
lwrist -6.10408
lhand -27.7201 -14.4971
lfingers 7.12502
lthumb -1.11556 15.4797
rfemur -55.9059 -25.022 14.589
rtibia 115.211
rfoot -15.5471 -15.0462
rtoes 0.231218
lfemur -64.1295 -4.16509 -6.79314
ltibia 62.8049
lfoot -3.39376 -8.95536
ltoes -4.38658
99
root 6.25022 26.0442 1.82303 -180.484 -9.22537 -186.828
lowerback 29.0752 3.30857 2.17649
upperback 5.99321 3.53873 -0.786556
thorax -9.06566 1.06527 -3.31348
lowerneck -9.6483 -2.36575 -4.07117
upperneck 11.3185 -2.30027 -4.34008
head 4.99387 -1.68638 -0.858914
rclavicle -1.15295e-014 -1.66979e-014
rhumerus -11.9862 7.55857 -59.4054
rradius 30.9384
rwrist 13.6252
rhand -22.5334 0.129498
rfingers 7.12502
rthumb 3.8937 -29.8147
lclavicle -1.15295e-014 -1.66979e-014
lhumerus -35.3128 5.73355 68.7761
lradius 52.2411
lwrist -6.51106
lhand -27.683 -14.436
lfingers 7.12502
lthumb -1.07979 15.541
rfemur -58.5017 -25.4512 16.342
rtibia 114.837
rfoot -16.4276 -15.9285
rtoes -1.12225
lfemur -63.2795 -4.25008 -7.001
ltibia 61.4967
lfoot -3.13841 -9.11004
ltoes -4.46596
100
root 6.11935 26.0385 1.439 -180.324 -9.39866 -186.717
lowerback 29.1537 3.27678 2.19757
upperback 5.99324 3.50849 -0.740943
thorax -9.10804 1.04904 -3.26753
lowerneck -9.67802 -2.39265 -4.1713
upperneck 11.2039 -2.32555 -4.31726
head 4.96504 -1.6978 -0.83661
rclavicle -1.51076e-014 1.11319e-014
rhumerus -14.5637 5.9372 -58.8532
rradius 29.9762
rwrist 13.8156
rhand -22.5726 -0.162692
rfingers 7.12502
rthumb 3.85584 -30.1076
lclavicle -1.51076e-014 1.11319e-014
lhumerus -36.2944 6.9417 67.9573
lradius 51.051
lwrist -6.69392
lhand -27.6099 -14.2709
lfingers 7.12502
lthumb -1.00912 15.7065
rfemur -60.9508 -25.6571 18.0954
rtibia 114.106
rfoot -17.2299 -16.6505
rtoes -2.63314
lfemur -62.4633 -4.33723 -7.18764
ltibia 60.222
lfoot -2.90966 -9.15946
ltoes -4.56653
101
root 5.99055 26.0189 1.05106 -180.165 -9.6139 -186.581
lowerback 29.1931 3.22618 2.21389
upperback 6.0059 3.45325 -0.677728
thorax -9.11996 1.02212 -3.18776
lowerneck -9.73425 -2.40913 -4.27392
upperneck 11.0871 -2.33366 -4.30328
head 4.93999 -1.70172 -0.815845
rclavicle -1.27222e-014 -2.06736e-014
rhumerus -17.1569 4.5603 -58.1002
rradius 29.2403
rwrist 13.8123
rhand -22.6175 -0.421286
rfingers 7.12502
rthumb 3.81244 -30.3669
lclavicle -1.27222e-014 -2.06736e-014
lhumerus -37.3067 8.09816 66.8344
lradius 49.8952
lwrist -6.62267
lhand -27.4783 -14.0149
lfingers 7.12502
lthumb -0.881998 15.963
rfemur -63.1971 -25.655 19.7855
rtibia 113.028
rfoot -17.949 -17.1225
rtoes -4.35495
lfemur -61.6755 -4.41112 -7.35542
ltibia 58.99
lfoot -2.71112 -9.107
ltoes -4.70294
102
root 5.86371 25.9854 0.65902 -180.014 -9.86146 -186.42
lowerback 29.1875 3.15914 2.21438
upperback 6.03667 3.37208 -0.590539
thorax -9.09344 0.984168 -3.05992
lowerneck -9.82898 -2.41012 -4.38098
upperneck 10.9782 -2.31586 -4.30503
head 4.92384 -1.69501 -0.798152
rclavicle -1.19271e-015 -7.15625e-015
rhumerus -19.735 3.4735 -57.1805
rradius 28.6946
rwrist 13.5963
rhand -22.6347 -0.657613
rfingers 7.12502
rthumb 3.79584 -30.6036
lclavicle -1.19271e-015 -7.15625e-015
lhumerus -38.3364 9.20229 65.4318
lradius 48.7317
lwrist -6.33771
lhand -27.3029 -13.6756
lfingers 7.12502
lthumb -0.712633 16.3029
rfemur -65.1886 -25.4728 21.3534
rtibia 111.616
rfoot -18.5815 -17.2794
rtoes -6.28652
lfemur -60.9093 -4.456 -7.51298
ltibia 57.8092
lfoot -2.53899 -8.96416
ltoes -4.88624
103
root 5.73867 25.9379 0.26285 -179.878 -10.1357 -186.238
lowerback 29.1339 3.08076 2.194
upperback 6.07366 3.27217 -0.483451
thorax -9.0398 0.939171 -2.88894
lowerneck -9.89974 -2.3981 -4.4861
upperneck 10.8691 -2.28255 -4.31039
head 4.90351 -1.68087 -0.780445
rclavicle 5.40694e-014 -1.82882e-014
rhumerus -22.3142 2.67666 -56.1343
rradius 28.3066
rwrist 13.1857
rhand -22.6021 -0.857128
rfingers 7.12502
rthumb 3.82733 -30.8025
lclavicle 5.40694e-014 -1.82882e-014
lhumerus -39.3843 10.227 63.7608
lradius 47.5118
lwrist -5.91371
lhand -27.1108 -13.3209
lfingers 7.12502
lthumb -0.527105 16.6582
rfemur -66.8887 -25.1541 22.752
rtibia 109.892
rfoot -19.1279 -17.0765
rtoes -8.44915
lfemur -60.1614 -4.46379 -7.66843
ltibia 56.6863
lfoot -2.3797 -8.74341
ltoes -5.09899
104
root 5.61537 25.8761 -0.137811 -179.762 -10.4307 -186.045
lowerback 29.0343 2.99535 2.13683
upperback 6.11258 3.15473 -0.359201
thorax -8.96537 0.887927 -2.66981
lowerneck -9.94601 -2.3715 -4.5748
upperneck 10.7756 -2.23253 -4.32791
head 4.88355 -1.65926 -0.76779
rclavicle 3.89618e-014 -1.35174e-014
rhumerus -24.8827 2.15033 -54.9873
rradius 28.0491
rwrist 12.637
rhand -22.5078 -1.00988
rfingers 7.12502
rthumb 3.91841 -30.9536
lclavicle 3.89618e-014 -1.35174e-014
lhumerus -40.4777 11.113 61.8495
lradius 46.2679
lwrist -5.39251
lhand -26.8957 -12.955
lfingers 7.12502
lthumb -0.31936 17.0245
rfemur -68.2659 -24.7487 23.9434
rtibia 107.879
rfoot -19.5932 -16.5046
rtoes -10.8786
lfemur -59.4216 -4.42534 -7.84081
ltibia 55.6259
lfoot -2.21553 -8.46703
ltoes -5.32619
105
root 5.49369 25.7999 -0.542894 -179.673 -10.7382 -185.854
lowerback 28.8984 2.90691 2.03082
upperback 6.14829 3.02189 -0.220193
thorax -8.8807 0.831393 -2.40007
lowerneck -9.97372 -2.33053 -4.66614
upperneck 10.7188 -2.16391 -4.34326
head 4.87187 -1.62988 -0.752898
rclavicle 4.05521e-014 -3.18055e-015
rhumerus -27.4245 1.85133 -53.7496
rradius 27.8951
rwrist 12.0448
rhand -22.3455 -1.09903
rfingers 7.12502
rthumb 4.07512 -31.0398
lclavicle 4.05521e-014 -3.18055e-015
lhumerus -41.6022 11.8704 59.7191
lradius 44.9719
lwrist -4.86916
lhand -26.68 -12.5879
lfingers 7.12502
lthumb -0.110994 17.3918
rfemur -69.3087 -24.2895 24.907
rtibia 105.604
rfoot -19.9686 -15.6003
rtoes -13.5903
lfemur -58.6832 -4.33554 -8.04246
ltibia 54.6298
lfoot -2.02598 -8.15619
ltoes -5.54315
